<svg width="32" height="26" viewBox="0 0 32 26" fill="none" xmlns="http://www.w3.org/2000/svg">
<g filter="url(#filter0_d_2149_2170)">
<path d="M28 0H4C3.73478 0 3.48043 0.105357 3.29289 0.292893C3.10536 0.48043 3 0.734784 3 1V18C3 18.5304 3.21071 19.0391 3.58579 19.4142C3.96086 19.7893 4.46957 20 5 20H27C27.5304 20 28.0391 19.7893 28.4142 19.4142C28.7893 19.0391 29 18.5304 29 18V1C29 0.734784 28.8946 0.48043 28.7071 0.292893C28.5196 0.105357 28.2652 0 28 0ZM25.4287 2L16 10.6437L6.57125 2H25.4287ZM27 18H5V3.27375L15.3237 12.7375C15.5082 12.9069 15.7496 13.0008 16 13.0008C16.2504 13.0008 16.4918 12.9069 16.6763 12.7375L27 3.27375V18Z" fill="#E2E4E9"/>
</g>
<defs>
<filter id="filter0_d_2149_2170" x="-1" y="0" width="34" height="28" filterUnits="userSpaceOnUse" color-interpolation-filters="sRGB">
<feFlood flood-opacity="0" result="BackgroundImageFix"/>
<feColorMatrix in="SourceAlpha" type="matrix" values="0 0 0 0 0 0 0 0 0 0 0 0 0 0 0 0 0 0 127 0" result="hardAlpha"/>
<feOffset dy="4"/>
<feGaussianBlur stdDeviation="2"/>
<feComposite in2="hardAlpha" operator="out"/>
<feColorMatrix type="matrix" values="0 0 0 0 0 0 0 0 0 0 0 0 0 0 0 0 0 0 0.25 0"/>
<feBlend mode="normal" in2="BackgroundImageFix" result="effect1_dropShadow_2149_2170"/>
<feBlend mode="normal" in="SourceGraphic" in2="effect1_dropShadow_2149_2170" result="shape"/>
</filter>
</defs>
</svg>
